<?xml version="1.0" standalone="no"?><!DOCTYPE svg PUBLIC "-//W3C//DTD SVG 1.1//EN" "http://www.w3.org/Graphics/SVG/1.1/DTD/svg11.dtd"><svg t="1771921417320" class="icon" viewBox="0 0 1084 1024" version="1.1" xmlns="http://www.w3.org/2000/svg" p-id="14895" xmlns:xlink="http://www.w3.org/1999/xlink" width="211.71875" height="200"><path d="M385.505882 427.670588c-18.070588-18.070588-36.141176-24.094118-54.211764-30.117647-12.047059-6.023529-36.141176-6.023529-66.258824-6.023529H198.776471v277.082353h66.258823c30.117647 0 54.211765 0 66.258824-6.02353 18.070588-6.023529 36.141176-12.047059 48.188235-24.094117 30.117647-24.094118 48.188235-60.235294 48.188235-102.4 0-48.188235-12.047059-84.329412-42.164706-108.42353z m-42.164706 162.635294c-12.047059 6.023529-18.070588 12.047059-30.117647 18.070589-12.047059 0-24.094118 6.023529-42.164705 6.023529h-12.047059V445.741176h12.047059c36.141176 0 60.235294 6.023529 78.305882 24.094118 12.047059 12.047059 24.094118 30.117647 24.094118 60.235294 0 24.094118-12.047059 42.164706-30.117648 60.235294z m313.22353-30.117647L463.811765 373.458824 451.764706 361.411765v307.2h60.235294V493.929412l186.729412 186.729412 12.047059 12.047058v-301.17647h-60.235295v168.658823z m198.77647-66.258823l-30.117647-12.047059c-18.070588-6.023529-24.094118-12.047059-24.094117-24.094118 0-6.023529 0-12.047059 6.023529-18.070588s12.047059-6.023529 24.094118-6.023529c6.023529 0 12.047059 0 18.070588 6.023529 0 0 6.023529 6.023529 12.047059 18.070588l6.023529 6.02353 48.188236-24.094118-6.02353-6.023529c-18.070588-30.117647-48.188235-48.188235-84.329412-48.188236-24.094118 0-48.188235 6.023529-66.258823 24.094118-18.070588 12.047059-24.094118 30.117647-24.094118 54.211765 0 30.117647 18.070588 54.211765 60.235294 72.282353l36.141177 6.023529c6.023529 0 12.047059 6.023529 18.070588 6.023529 6.023529 0 6.023529 6.023529 12.047059 6.02353l6.023529 6.023529v12.047059c0 12.047059 0 18.070588-12.047059 24.094118-6.023529 6.023529-18.070588 12.047059-24.094117 12.047059-12.047059 0-24.094118-6.023529-30.117647-12.047059 0 0-6.023529-12.047059-6.02353-30.117647v-6.02353l-60.235294 12.047059v6.02353c6.023529 24.094118 12.047059 48.188235 30.117647 60.235294 18.070588 12.047059 36.141176 24.094118 66.258824 24.094117 30.117647 0 48.188235-6.023529 72.282353-24.094117 18.070588-18.070588 30.117647-36.141176 30.117647-66.258824 0-18.070588-6.023529-36.141176-18.070588-48.188235-18.070588-6.023529-36.141176-18.070588-60.235295-30.117647z m186.729412 210.823529c-12.047059 0-18.070588 0-24.094117 12.047059-6.023529 6.023529-12.047059 18.070588-12.047059 24.094118 0 18.070588 18.070588 36.141176 36.141176 36.141176 12.047059 0 18.070588-6.023529 24.094118-12.047059 6.023529-6.023529 12.047059-18.070588 12.047059-24.094117 0-18.070588-18.070588-36.141176-36.141177-36.141177zM66.258824 349.364706c18.070588 0 36.141176-18.070588 36.141176-36.141177 0-6.023529-6.023529-18.070588-12.047059-24.094117-12.047059-12.047059-24.094118-12.047059-30.117647-12.047059-18.070588 0-36.141176 18.070588-36.141176 36.141176 0 12.047059 6.023529 18.070588 12.047058 24.094118 6.023529 6.023529 18.070588 12.047059 30.117648 12.047059-6.023529 0-6.023529 0 0 0z" fill="#1296db" p-id="14896"></path><path d="M993.882353 343.341176h18.070588c18.070588 0 30.117647-12.047059 30.117647-30.117647s-12.047059-30.117647-30.117647-30.117647H963.764706C879.435294 138.541176 716.8 48.188235 548.141176 48.188235 421.647059 42.164706 301.176471 96.376471 210.823529 186.729412 120.470588 277.082353 66.258824 397.552941 72.282353 530.070588c0 60.235294 12.047059 126.494118 36.141176 180.705883h-36.141176c-18.070588 0-30.117647 12.047059-30.117647 30.117647s12.047059 30.117647 30.117647 30.117647h66.258823c18.070588 36.141176 48.188235 66.258824 72.282353 96.37647C301.176471 957.741176 421.647059 1005.929412 548.141176 1005.929412c132.517647 0 252.988235-54.211765 343.341177-144.564706s138.541176-216.847059 138.541176-349.364706c0-54.211765-12.047059-114.447059-36.141176-168.658824z m-102.4-60.235294h-90.352941c-18.070588-48.188235-42.164706-96.376471-66.258824-132.517647 66.258824 30.117647 114.447059 78.305882 156.611765 132.517647z m-252.988235-144.564706c54.211765 42.164706 78.305882 96.376471 96.37647 138.541177H578.258824V108.423529c24.094118 6.023529 42.164706 18.070588 60.235294 30.117647z m-271.058824 12.047059c-30.117647 36.141176-48.188235 78.305882-66.258823 126.494118H210.823529c42.164706-54.211765 96.376471-96.376471 156.611765-126.494118z m0 752.941177c-66.258824-30.117647-114.447059-78.305882-156.611765-126.494118H301.176471c18.070588 48.188235 42.164706 90.352941 66.258823 126.494118z m60.235294-24.094118c-24.094118-30.117647-42.164706-60.235294-60.235294-102.4h156.611765v168.658824c-36.141176-12.047059-66.258824-30.117647-96.376471-66.258824z m307.2 24.094118c6.023529-6.023529 6.023529-12.047059 12.047059-18.070588l6.023529-6.02353c6.023529-12.047059 12.047059-18.070588 18.070589-30.117647 6.023529-12.047059 12.047059-18.070588 18.070588-30.117647v-6.023529c6.023529-12.047059 6.023529-24.094118 12.047059-36.141177h84.329412c-42.164706 54.211765-90.352941 96.376471-150.588236 126.494118z m192.752941-192.752941H783.058824c-12.047059 0-18.070588 6.023529-24.094118 6.023529 0 0 0 6.023529-6.02353 6.023529v12.047059c-6.023529 12.047059-6.023529 24.094118-12.047058 36.141177-18.070588 54.211765-48.188235 96.376471-84.329412 126.494117-24.094118 18.070588-42.164706 30.117647-66.258824 36.141177v-168.658824h30.117647c18.070588 0 30.117647-12.047059 30.117647-30.117647s-12.047059-30.117647-30.117647-30.117647H174.682353c-18.070588-36.141176-30.117647-78.305882-36.141177-120.470588-12.047059-84.329412 0-168.658824 36.141177-246.964706H313.223529c18.070588 0 36.141176-12.047059 42.164706-30.117647 12.047059-36.141176 24.094118-66.258824 42.164706-96.376471 30.117647-48.188235 60.235294-84.329412 102.4-96.37647 6.023529 0 12.047059-6.023529 18.070588-6.02353v168.658824h-24.094117c-12.047059 0-18.070588 0-24.094118 12.047059-6.023529 6.023529-6.023529 12.047059-6.023529 24.094117 0 18.070588 12.047059 30.117647 30.117647 30.117647h433.694117c18.070588 36.141176 30.117647 72.282353 36.141177 114.447059 18.070588 84.329412 6.023529 168.658824-36.141177 252.988236z" fill="#1296db" p-id="14897"></path></svg>